<svg xmlns="http://www.w3.org/2000/svg" xmlns:xlink="http://www.w3.org/1999/xlink" width="500" zoomAndPan="magnify" viewBox="0 0 375 374.999991" height="500" preserveAspectRatio="xMidYMid meet" version="1.0"><defs><g/></defs><g fill="#000000" fill-opacity="1"><g transform="translate(30.691195, 349.774259)"><g><path d="M 168.996094 4.277344 C 238.734375 4.277344 284.941406 -33.800781 295.636719 -92.414062 L 264.402344 -92.414062 C 255.417969 -47.488281 219.054688 -22.246094 168.140625 -22.246094 C 89.847656 -22.246094 50.914062 -83.429688 50.914062 -163.433594 C 50.914062 -243.011719 89.847656 -304.191406 168.140625 -304.191406 C 219.054688 -304.191406 255.847656 -278.949219 264.402344 -240.015625 L 295.636719 -240.015625 C 285.367188 -293.070312 238.734375 -330.71875 168.996094 -330.71875 C 68.027344 -330.71875 21.390625 -251.996094 21.390625 -163.433594 C 21.390625 -74.871094 68.027344 4.277344 168.996094 4.277344 Z M 168.996094 4.277344 "/></g></g></g><g fill="#000000" fill-opacity="1"><g transform="translate(85.549482, 317.888475)"><g><path d="M 50.800781 0 L 50.800781 -121.164062 L 176.425781 -121.164062 L 176.425781 -142.101562 L 50.800781 -142.101562 L 50.800781 -240.613281 L 193.929688 -240.613281 L 193.929688 -261.890625 L 27.117188 -261.890625 L 27.117188 0 Z M 50.800781 0 "/></g></g></g><g fill="#000000" fill-opacity="1"><g transform="translate(133.064746, 315.616519)"><g><path d="M 160.886719 0 L 160.886719 -20.03125 L 47.8125 -20.03125 L 47.8125 -246.5 L 25.523438 -246.5 L 25.523438 0 Z M 160.886719 0 "/></g></g></g></svg>